HIERARCHY
ROOT Hips
{
	OFFSET 0.00 0.00 0.00
	CHANNELS 6 Xposition Yposition Zposition Zrotation Xrotation Yrotation
	JOINT Spine
	{
		OFFSET 0 13.7848 0.0644
		CHANNELS 3 Zrotation Xrotation Yrotation
		JOINT Spine1
		{
			OFFSET 0 12.0447 -0
			CHANNELS 3 Zrotation Xrotation Yrotation
			JOINT Spine2
			{
				OFFSET -0 17.8005 -0
				CHANNELS 3 Zrotation Xrotation Yrotation
				JOINT Neck
				{
					OFFSET 0 40.9166 -0
					CHANNELS 3 Zrotation Xrotation Yrotation
					JOINT Head
					{
						OFFSET -0 21.2887 0
						CHANNELS 3 Zrotation Xrotation Yrotation
						JOINT HeadTop_End
						{
							OFFSET 0 17.4474 0
							CHANNELS 3 Zrotation Xrotation Yrotation
						}
					}
				}
				JOINT LeftShoulder
				{
					OFFSET 17.3995 23.8766 -6.0721
					CHANNELS 3 Zrotation Xrotation Yrotation
					JOINT LeftArm
					{
						OFFSET -0 19.9201 -0
						CHANNELS 3 Zrotation Xrotation Yrotation
						JOINT LeftForeArm
						{
							OFFSET -0 49.2901 -0
							CHANNELS 3 Zrotation Xrotation Yrotation
							JOINT LeftHand
							{
								OFFSET 0 31.562 0
								CHANNELS 3 Zrotation Xrotation Yrotation
								JOINT LeftHandThumb1
								{
									OFFSET -7.9466 6.134 2.4863
									CHANNELS 3 Zrotation Xrotation Yrotation
									JOINT LeftHandThumb2
									{
										OFFSET -0.0255 -7.7944 -0.0327
										CHANNELS 3 Zrotation Xrotation Yrotation
										JOINT LeftHandThumb3
										{
											OFFSET -0.0205 -8.3869 0.0307
											CHANNELS 3 Zrotation Xrotation Yrotation
											JOINT LeftHandThumb4
											{
												OFFSET 0.0565 -7.2511 -0.013
												CHANNELS 3 Zrotation Xrotation Yrotation
											}
										}
									}
								}
								JOINT LeftHandPinky1
								{
									OFFSET 10.9531 18.9207 3.2871
									CHANNELS 3 Zrotation Xrotation Yrotation
									JOINT LeftHandPinky2
									{
										OFFSET -0.0034 -4.9187 0.0963
										CHANNELS 3 Zrotation Xrotation Yrotation
										JOINT LeftHandPinky3
										{
											OFFSET 0.0758 -5.2323 0.0358
											CHANNELS 3 Zrotation Xrotation Yrotation
											JOINT LeftHandPinky4
											{
												OFFSET -0.1312 -5.5702 0.001
												CHANNELS 3 Zrotation Xrotation Yrotation
											}
										}
									}
								}
								JOINT LeftHandRing1
								{
									OFFSET 6.2716 22.7261 1.7123
									CHANNELS 3 Zrotation Xrotation Yrotation
									JOINT LeftHandRing2
									{
										OFFSET -0.0452 -6.4083 0.0434
										CHANNELS 3 Zrotation Xrotation Yrotation
										JOINT LeftHandRing3
										{
											OFFSET -0.1152 -6.1487 -0.0756
											CHANNELS 3 Zrotation Xrotation Yrotation
											JOINT LeftHandRing4
											{
												OFFSET -0.2306 -6.141 -0.0323
												CHANNELS 3 Zrotation Xrotation Yrotation
											}
										}
									}
								}
								JOINT LeftHandMiddle1
								{
									OFFSET -0 23.374 -0
									CHANNELS 3 Zrotation Xrotation Yrotation
									JOINT LeftHandMiddle2
									{
										OFFSET -0.1878 -6.9921 -0.168
										CHANNELS 3 Zrotation Xrotation Yrotation
										JOINT LeftHandMiddle3
										{
											OFFSET -0.0477 -7.0158 0.0144
											CHANNELS 3 Zrotation Xrotation Yrotation
											JOINT LeftHandMiddle4
											{
												OFFSET -0.0402 -7.7215 -0.0133
												CHANNELS 3 Zrotation Xrotation Yrotation
											}
										}
									}
								}
								JOINT LeftHandIndex1
								{
									OFFSET -6.1355 21.3106 -1.073
									CHANNELS 3 Zrotation Xrotation Yrotation
									JOINT LeftHandIndex2
									{
										OFFSET 0.0766 -7.536 -0.0238
										CHANNELS 3 Zrotation Xrotation Yrotation
										JOINT LeftHandIndex3
										{
											OFFSET -0.0927 -7.5116 0.0451
											CHANNELS 3 Zrotation Xrotation Yrotation
											JOINT LeftHandIndex4
											{
												OFFSET -0.0002 -10.2123 -0.0339
												CHANNELS 3 Zrotation Xrotation Yrotation
											}
										}
									}
								}
							}
						}
					}
				}
				JOINT RightShoulder
				{
					OFFSET -17.3995 23.8766 -6.0721
					CHANNELS 3 Zrotation Xrotation Yrotation
					JOINT RightArm
					{
						OFFSET 0 19.9201 0
						CHANNELS 3 Zrotation Xrotation Yrotation
						JOINT RightForeArm
						{
							OFFSET 0 49.2901 0
							CHANNELS 3 Zrotation Xrotation Yrotation
							JOINT RightHand
							{
								OFFSET -0 31.562 0
								CHANNELS 3 Zrotation Xrotation Yrotation
								JOINT RightHandThumb1
								{
									OFFSET 7.9466 6.134 2.4863
									CHANNELS 3 Zrotation Xrotation Yrotation
									JOINT RightHandThumb2
									{
										OFFSET 0.0255 -7.7944 -0.0327
										CHANNELS 3 Zrotation Xrotation Yrotation
										JOINT RightHandThumb3
										{
											OFFSET 0.0205 -8.3869 0.0307
											CHANNELS 3 Zrotation Xrotation Yrotation
											JOINT RightHandThumb4
											{
												OFFSET -0.0565 -7.2511 -0.013
												CHANNELS 3 Zrotation Xrotation Yrotation
											}
										}
									}
								}
								JOINT RightHandIndex1
								{
									OFFSET 6.1355 21.3106 -1.073
									CHANNELS 3 Zrotation Xrotation Yrotation
									JOINT RightHandIndex2
									{
										OFFSET -0.0766 -7.536 -0.0238
										CHANNELS 3 Zrotation Xrotation Yrotation
										JOINT RightHandIndex3
										{
											OFFSET 0.0927 -7.5116 0.0451
											CHANNELS 3 Zrotation Xrotation Yrotation
											JOINT RightHandIndex4
											{
												OFFSET 0.0002 -10.2123 -0.0339
												CHANNELS 3 Zrotation Xrotation Yrotation
											}
										}
									}
								}
								JOINT RightHandMiddle1
								{
									OFFSET 0 23.374 -0
									CHANNELS 3 Zrotation Xrotation Yrotation
									JOINT RightHandMiddle2
									{
										OFFSET 0.1878 -6.9921 -0.168
										CHANNELS 3 Zrotation Xrotation Yrotation
										JOINT RightHandMiddle3
										{
											OFFSET 0.0477 -7.0158 0.0144
											CHANNELS 3 Zrotation Xrotation Yrotation
											JOINT RightHandMiddle4
											{
												OFFSET 0.0402 -7.7215 -0.0133
												CHANNELS 3 Zrotation Xrotation Yrotation
											}
										}
									}
								}
								JOINT RightHandRing1
								{
									OFFSET -6.2716 22.7261 1.7123
									CHANNELS 3 Zrotation Xrotation Yrotation
									JOINT RightHandRing2
									{
										OFFSET 0.0452 -6.4083 0.0434
										CHANNELS 3 Zrotation Xrotation Yrotation
										JOINT RightHandRing3
										{
											OFFSET 0.1152 -6.1487 -0.0756
											CHANNELS 3 Zrotation Xrotation Yrotation
											JOINT RightHandRing4
											{
												OFFSET 0.2306 -6.141 -0.0323
												CHANNELS 3 Zrotation Xrotation Yrotation
											}
										}
									}
								}
								JOINT RightHandPinky1
								{
									OFFSET -10.9531 18.9207 3.2871
									CHANNELS 3 Zrotation Xrotation Yrotation
									JOINT RightHandPinky2
									{
										OFFSET 0.0034 -4.9187 0.0963
										CHANNELS 3 Zrotation Xrotation Yrotation
										JOINT RightHandPinky3
										{
											OFFSET -0.0758 -5.2323 0.0358
											CHANNELS 3 Zrotation Xrotation Yrotation
											JOINT RightHandPinky4
											{
												OFFSET 0.1312 -5.5702 0.001
												CHANNELS 3 Zrotation Xrotation Yrotation
											}
										}
									}
								}
							}
						}
					}
				}
			}
		}
	}
	JOINT LeftUpLeg
	{
		OFFSET 19.8991 -7.8851 -3.4295
		CHANNELS 3 Zrotation Xrotation Yrotation
		JOINT LeftLeg
		{
			OFFSET -0 38.4457 -0
			CHANNELS 3 Zrotation Xrotation Yrotation
			JOINT LeftFoot
			{
				OFFSET -0.1321 32.8117 -0.1889
				CHANNELS 3 Zrotation Xrotation Yrotation
				JOINT LeftToeBase
				{
					OFFSET 0 24.02 0
					CHANNELS 3 Zrotation Xrotation Yrotation
					JOINT LeftToe_End
					{
						OFFSET -0 16.6166 -0
						CHANNELS 3 Zrotation Xrotation Yrotation
					}
				}
			}
		}
	}
	JOINT RightUpLeg
	{
		OFFSET -19.8991 -7.8851 -3.4295
		CHANNELS 3 Zrotation Xrotation Yrotation
		JOINT RightLeg
		{
			OFFSET 0 38.4457 -0
			CHANNELS 3 Zrotation Xrotation Yrotation
			JOINT RightFoot
			{
				OFFSET 0.1321 32.8117 -0.1889
				CHANNELS 3 Zrotation Xrotation Yrotation
				JOINT RightToeBase
				{
					OFFSET -0 24.02 0
					CHANNELS 3 Zrotation Xrotation Yrotation
					JOINT RightToe_End
					{
						OFFSET 0 16.6166 -0
						CHANNELS 3 Zrotation Xrotation Yrotation
					}
				}
			}
		}
	}
}
MOTION
Frames: 4
Frame Time: 0.0333333
6.2291	74.549	6.5566	0.376539	1.16796	-21.0446	8.50336	31.7238	-3.1593	1.9472	6.72314	-1.35532	2.19079	22.9683	-1.35157	-3.96018	24.6373	2.12954	-19.0188	-54.123	-2.51245	-0	-55.7115	-0	-82.8027	2.62064	14.3323	-38.9171	49.7315	27.0422	38.8878	26.7788	20.0618	18.9189	-2.81861	-2.59614	-122.906	2.87082	-134.919	24.1318	-6.40539	-5.02535	21.8032	-3.4876	1.23038	-8.6489	-1.81523	-33.3438	150.138	-14.6942	-172.633	6.35946	39.7205	-12.4966	1.24315	16.7563	-2.36936	-0.569979	-8.19974	-4.84949	165.22	2.50354	-176.774	1.5095	61.4646	0.236759	1.38832	9.68962	-2.74002	-0	-6.0471	-0	-177.766	-13.6358	-175.11	-6.23998	42.2004	12.2397	-2.8784	17.5419	1.89684	0.291655	-5.22659	-2.24865	-160.959	-18.2289	-179.301	-14.6749	27.6707	17.6256	-7.73223	17.083	11.2475	-2.39024	-0.645758	5.07582	80.6965	3.4065	-14.0571	7.08157	67.3726	23.9966	-40.1554	28.9182	-20.5162	-22.2809	11.9819	-6.26574	125.195	-8.40449	142.526	-16.7243	-10.123	4.78973	-18.3288	-6.00502	-1.65177	8.6489	-1.81523	33.3438	163.854	-10.0049	-175.517	2.50254	10.8863	-4.64568	7.38418	16.5573	-10.8928	2.39024	-0.645758	-5.07582	-179.588	-3.37799	177.746	5.49885	40.6539	-11.5684	2.73338	16.7736	-1.76732	-0.291655	-5.22659	2.24865	-164.833	3.72769	176.772	-1.64297	59.7533	-0.382156	-1.39138	8.90688	2.59906	-0	-6.0471	-0	-150.009	-13.7697	172.348	-5.79372	38.1727	11.5802	-1.1272	16.102	2.11522	0.569979	-8.19974	4.84949	-146.997	54.0135	-40.5417	155.183	-63.0855	139.752	-24.16	68.3053	28.4318	6.41256	71.3806	-13.752	-0.214127	1.01299	0.205132	147.293	42.2525	38.022	-139.672	-69.5263	-135.066	109.234	76.6135	-104.396	2.72294	59.6352	-3.61323	0.214127	1.01299	-0.205132
6.8469	71.3352	6.7134	1.16147	-1.4529	-22.443	8.92136	39.0133	-2.02436	1.74317	6.39636	-0.875752	1.81173	22.6474	-0.835747	-3.98754	25.2122	1.69745	-21.7296	-56.4635	-6.25406	-0	-55.7115	-0	-81.2322	3.82949	14.478	-36.4035	46.7199	25.7346	30.2759	21.7727	23.0582	21.9864	-2.78073	-13.6895	-122.644	4.44441	-134.761	25.0598	-5.90886	-6.90346	22.3396	-3.21275	0.314394	-8.6489	-1.81523	-33.3438	148.716	-5.95479	-169.891	6.71414	40.6293	-13.0559	1.34211	17.2991	-2.58218	-0.569979	-8.19974	-4.84949	163.218	11.6959	-176.388	1.42902	62.512	0.147759	1.3874	10.27	-2.84481	-0	-6.0471	-0	179.768	-4.18721	-177.56	-6.7313	43.175	12.6874	-2.98481	18.0969	1.99208	0.291655	-5.22659	-2.24865	-164.346	-9.44246	175.311	-15.4468	28.441	18.4343	-7.98119	17.4537	11.5009	-2.39024	-0.645758	5.07582	79.5471	2.03908	-14.0489	-17.3651	61.9654	47.0242	-29.6438	22.1845	-23.9269	-28.9888	6.49965	8.3571	125.706	-9.99728	144.554	-15.4931	-10.5437	6.61976	-17.8515	-6.45728	-0.730736	8.6489	-1.81523	33.3438	166.369	-1.63603	-171.045	0.840949	7.69328	-2.82101	7.50887	16.7467	-11.02	2.39024	-0.645758	-5.07582	-177.662	5.6437	179.659	5.74778	41.1839	-11.7934	2.78121	17.0286	-1.80998	-0.291655	-5.22659	2.24865	-162.889	13.0496	176.322	-1.59651	60.3482	-0.331497	-1.38999	9.21367	2.65427	-0	-6.0471	-0	-148.521	-4.82236	169.519	-5.98697	38.7161	11.897	-1.17491	16.3735	2.22039	0.569979	-8.19974	4.84949	-151.854	59.8906	-39.0609	158.474	-60.0222	140.512	-16.7423	69.2548	24.5558	7.75741	70.3356	-16.5788	-0.214127	1.01299	0.205132	149.737	36.8922	35.9021	-140.473	-63.8761	-138.482	136.866	74.0427	-134.331	2.46644	63.2403	-3.55986	0.214127	1.01299	-0.205132
6.3212	71.4129	6.2289	2.66339	-1.9604	-24.4238	5.97725	40.8312	1.9234	1.16091	5.87129	-0.102739	1.00545	22.1204	-0.0224526	-4.15666	26.1247	1.02815	-21.4259	-57.1946	-8.20051	-0	-55.7115	-0	-79.5676	4.65256	14.6048	-41.105	42.0672	29.4368	29.0551	21.3825	23.5195	21.4136	-0.955492	-12.7128	-122.541	5.07136	-134.7	25.0908	-5.59641	-7.82704	22.1528	-3.23839	-0.154346	-8.6489	-1.81523	-33.3438	148.08	-2.44495	-168.727	6.85106	40.9684	-13.269	1.38745	17.543	-2.67835	-0.569979	-8.19974	-4.84949	162.457	15.4481	-176.146	1.41188	62.7395	0.128156	1.38735	10.3969	-2.86772	-0	-6.0471	-0	178.244	2.92876	-179.121	-6.87993	43.4624	12.8232	-3.00733	18.214	2.01237	0.291655	-5.22659	-2.24865	-166.356	-2.23094	171.431	-13.6577	26.6126	16.558	-8.10846	17.6415	11.6306	-2.39024	-0.645758	5.07582	77.9143	1.17833	-14.0777	-25.679	57.713	52.9407	-26.5428	19.7177	-24.1738	-31.801	2.5205	15.9589	125.926	-10.6265	145.368	-14.8672	-10.6509	7.43296	-17.5892	-6.70924	-0.233298	8.6489	-1.81523	33.3438	167.319	1.85652	-169.39	-0.223526	5.49456	-1.64104	7.50183	16.7359	-11.0127	2.39024	-0.645758	-5.07582	-177.135	8.66162	-179.753	5.80104	41.296	-11.8416	2.7906	17.0786	-1.81841	-0.291655	-5.22659	2.24865	-162.151	16.7725	176.042	-1.58898	60.4455	-0.323163	-1.38982	9.25428	2.66157	-0	-6.0471	-0	-147.816	-1.18673	168.301	-6.04103	38.8653	11.9848	-1.18985	16.4579	2.25316	0.569979	-8.19974	4.84949	-149.564	65.2262	-40.886	158.626	-65.4853	141.078	-18.1754	70.7761	24.8452	-2.32986	57.2588	0.408807	-0.214127	1.01299	0.205132	149.953	28.3291	33.6349	-136.216	-62.899	-136.686	145.615	70.1691	-143.826	1.98524	68.7732	-3.32068	0.214127	1.01299	-0.205132
6.135	72.9531	5.8174	4.46143	-0.81764	-26.2319	1.58336	38.275	6.5963	0.288224	5.23759	0.720508	-0.0742504	21.48	0.819093	-4.34632	27.2341	0.350112	-18.1941	-57.0048	-7.81295	-0	-55.7115	-0	-77.9071	5.27462	14.7379	-47.2928	36.6438	33.2127	31.7168	23.0807	22.7487	18.9687	3.15508	-5.50998	-122.541	5.07136	-134.7	25.0908	-5.59641	-7.82704	22.1528	-3.23839	-0.154246	-8.6489	-1.81523	-33.3438	148.08	-2.44486	-168.727	6.85106	40.9684	-13.269	1.38745	17.543	-2.67835	-0.569979	-8.19974	-4.84949	162.457	15.4481	-176.146	1.41168	62.7395	0.128374	1.38734	10.3968	-2.86772	-0	-6.0471	-0	177.564	6.37687	-179.811	-6.87993	43.4624	12.8232	-3.00733	18.214	2.01237	0.291655	-5.22659	-2.24865	-167.259	1.58367	169.524	-11.7924	24.5367	14.5941	-8.10836	17.6415	11.6306	-2.39024	-0.645758	5.07582	76.2033	0.488015	-14.2019	-24.4365	56.9135	50.1457	-27.8913	20.6185	-23.8317	-32.4625	0.722674	18.4437	125.926	-10.6265	145.368	-14.8672	-10.6509	7.43296	-17.5892	-6.70924	-0.233298	8.6489	-1.81523	33.3438	167.481	2.61852	-169.018	-0.661032	4.55348	-1.15324	7.50173	16.7359	-11.0127	2.39024	-0.645758	-5.07582	-177.135	8.66162	-179.753	5.80104	41.296	-11.8416	2.7906	17.0786	-1.81841	-0.291655	-5.22659	2.24865	-162.151	16.7725	176.042	-1.58898	60.4455	-0.323163	-1.38982	9.25428	2.66157	-0	-6.0471	-0	-147.816	-1.18673	168.301	-6.04103	38.8653	11.9848	-1.18985	16.4579	2.25316	0.569979	-8.19974	4.84949	-141.892	68.3651	-46.2306	151.515	-76.5979	136.167	-22.2901	73.0647	24.7587	-2.96019	55.6227	3.57838	-0.214127	1.01299	0.205132	148.997	20.9138	30.9893	-126.43	-66.0766	-127.508	135.649	71.2276	-133.046	0.507446	76.7146	-1.07141	0.214127	1.01299	-0.205132
